<svg xmlns="http://www.w3.org/2000/svg" width="467.072" height="200"><g data-name="Group 4399"><g data-name="Group 4398"><g data-name="Group 4389"><g data-name="Group 4323"><path data-name="Path 1325" d="M99.375 26.265h95.2s-.163-6.021-13.833-4.72c-8.625-.185-7.486 2.278-19.041-11.555S139.08-1.89 134.524 7.223s-4.557 11.229-14 11.717-15.778-.161-21.149 7.325z" fill="#fffaf8"/></g><g data-name="Group 4324"><path data-name="Path 1326" d="M384.329 52.525h-95.2s.163-6.021 13.833-4.72c8.625-.184 7.486 2.278 19.041-11.555s22.621-11.88 27.177-2.767 4.557 11.229 14 11.717 15.779-.157 21.149 7.325z" fill="#fffaf8"/></g><g data-name="Group 4337"><g data-name="Group 4331"><g data-name="Group 4326"><g data-name="Group 4325"><path data-name="Path 1327" d="M263.279 77.315a.867.867 0 01-.275-.045.873.873 0 01-.553-1.1c.011-.033.275-.821.818-2.1a.873.873 0 011.145-.461.873.873 0 01.461 1.145c-.513 1.2-.765 1.957-.768 1.964a.873.873 0 01-.828.597z" fill="#ff5722"/></g></g><g data-name="Group 4328"><g data-name="Group 4327"><path data-name="Path 1328" d="M334.448 73.905a.872.872 0 01-.872-.853.872.872 0 01.853-.891 53.671 53.671 0 004.379-.286.866.866 0 01.958.777.872.872 0 01-.778.958c-1.577.164-3.1.263-4.521.295zm-4.451-.142h-.081a29.668 29.668 0 01-4.521-.758.873.873 0 01-.633-1.06.873.873 0 011.059-.632 27.953 27.953 0 004.254.713.872.872 0 01.789.949.873.873 0 01-.867.789zm13.32-.749a.873.873 0 01-.86-.729.873.873 0 01.717-1l.043-.007c1.3-.331 2.681-.742 4.1-1.222a.873.873 0 011.106.547.873.873 0 01-.547 1.106c-1.474.5-2.909.926-4.266 1.27a.718.718 0 01-.075.016l-.073.012a.91.91 0 01-.146.007zm-21.9-1.465a.873.873 0 01-.366-.081 27.584 27.584 0 01-3.987-2.282.872.872 0 01-.229-1.213.872.872 0 011.212-.23 25.745 25.745 0 003.737 2.14.872.872 0 01.426 1.158.872.872 0 01-.794.508zm-55.4-.277a.868.868 0 01-.417-.106.872.872 0 01-.349-1.184 46.286 46.286 0 012.369-3.884.873.873 0 011.213-.229.873.873 0 01.229 1.212 44.837 44.837 0 00-2.279 3.736.872.872 0 01-.767.455zm85.759-1.083a.873.873 0 01-.809-.544.873.873 0 01.479-1.137 88.3 88.3 0 004.049-1.768.873.873 0 011.16.422.873.873 0 01-.422 1.16 89.497 89.497 0 01-4.129 1.8.866.866 0 01-.33.067zm-37.768-3.547a.869.869 0 01-.553-.2c-.532-.436-1.064-.88-1.6-1.33-.6-.5-1.205-1.007-1.828-1.516a.872.872 0 01-.124-1.227.873.873 0 011.228-.124c.627.513 1.239 1.024 1.843 1.528.534.446 1.062.887 1.589 1.32a.873.873 0 01.121 1.228.872.872 0 01-.678.321zm-42.951-2.719a.869.869 0 01-.571-.213.873.873 0 01-.088-1.23 33.066 33.066 0 013.226-3.251.873.873 0 011.231.084.872.872 0 01-.084 1.231 31.111 31.111 0 00-3.054 3.079.872.872 0 01-.662.3zm35.984-2.841a.87.87 0 01-.5-.16 41.02 41.02 0 00-3.687-2.333.872.872 0 01-.336-1.188.872.872 0 011.188-.335 42.882 42.882 0 013.842 2.431.873.873 0 01.209 1.216.871.871 0 01-.718.369zm-29.256-2.966a.872.872 0 01-.746-.418.873.873 0 01.29-1.2 23.607 23.607 0 014.16-2.018.873.873 0 011.12.518.873.873 0 01-.519 1.12 21.9 21.9 0 00-3.851 1.869.867.867 0 01-.456.129zm21.432-1.256a.872.872 0 01-.314-.058 31.182 31.182 0 00-4.141-1.282.873.873 0 01-.653-1.047.872.872 0 011.047-.653 33.048 33.048 0 014.374 1.353.873.873 0 01.5 1.128.873.873 0 01-.814.558zm-13.115-1.777a.872.872 0 01-.862-.749.872.872 0 01.74-.988 22.976 22.976 0 013.254-.23c.451 0 .909.013 1.363.039a.873.873 0 01.822.921.862.862 0 01-.921.822c-.42-.023-.845-.036-1.263-.036a21.245 21.245 0 00-3.006.212.85.85 0 01-.128.009z" fill="#ff5722"/></g></g><g data-name="Group 4330"><g data-name="Group 4329"><path data-name="Path 1329" d="M359.915 66.399a.871.871 0 01-.773-.467.873.873 0 01.366-1.178c1.18-.62 1.877-1.022 1.884-1.026a.873.873 0 011.192.319.873.873 0 01-.319 1.192c-.03.017-.731.422-1.945 1.06a.874.874 0 01-.405.1z" fill="#ff5722"/></g></g></g><g data-name="Group 4336"><g data-name="Group 4333"><g data-name="Group 4332"><path data-name="Path 1330" d="M371.592 49.492l-6.787 11.156 31.7-18.129-34.303 26.873-.372 14.038 45-48.623z" fill="#ffe6de"/></g></g><g data-name="Group 4335"><g data-name="Group 4334"><path data-name="Path 1331" d="M364.805 60.65l31.7-18.129-28.041 21.961z" fill="#ff5722"/></g></g></g></g><g data-name="Group 4388"><g data-name="Group 4340"><g data-name="Group 4338"><path data-name="Path 1332" d="M.212 194.773s-4.43-20.172 27.263-25.563 30.671-5.371 48.051-25.828 24.537-24.547 34.761-23.184 47.209-.142 57.636-1.488 38.777-15.739 52.218-29.624 43.24-24.836 72.191 0c14.211 12.19 19.389 14.348 23.92 22.763s25.244 38.747 44.663 43.755 51.351 3.058 57.824 6.191 12.945 3.348 15.535 2.053 5.394 6.042 6.9 7.767a59.075 59.075 0 009.925 8.415c3.237 1.942 16.182 6.831 15.967 14.743z" fill="#ffede6"/></g><g data-name="Group 4339"><path data-name="Path 1333" d="M8.059 194.772s6.6-12.767 28.534-12.767c10.738-1.994 12.119-12.119 20.4-13.96s28.38-3.068 41.88 2.608 49.244-6.167 62.744-15.05 104.99-27.861 126.293-8.669 44.5 0 44.5 0 12.583-12.471 23.592 8.669c11.01 11.109 16.122 9.807 23.593 9.968s29.49-3.377 46.005 14.71c11.01 7.471 8.875 6.573 12.468 7.2s7.968 5.211 7.812 7.293-437.821-.002-437.821-.002z" fill="#fff2ed"/></g></g><g data-name="Group 4357"><g data-name="Group 4341"><ellipse data-name="Ellipse 55" cx="135.381" cy="7.528" rx="135.381" ry="7.528" fill="#ffe9e0" transform="translate(93.227 184.944)"/></g><g data-name="Group 4356"><g data-name="Group 4342"><path data-name="Rectangle 253" fill="#ff845d" d="M156.704 118.71h142.842v73.787H156.704z"/></g><g data-name="Group 4343"><rect data-name="Rectangle 254" width="77.38" height="45.262" rx="3.133" fill="#fff" opacity=".9" transform="translate(189.402 128.331)"/></g><g data-name="Group 4390"><g data-name="Group 4344"><circle data-name="Ellipse 56" cx="3.014" cy="3.014" r="3.014" fill="#ff5722" transform="translate(207.538 140.368)"/></g><g data-name="Group 4345"><circle data-name="Ellipse 57" cx="3.014" cy="3.014" r="3.014" fill="#ff5722" transform="translate(238.836 140.368)"/></g><g data-name="Group 4346"><path data-name="Path 1334" d="M220.139 166.445a.866.866 0 01-.44-.12.872.872 0 01-.312-1.194c2.93-5 6.227-7.681 9.8-7.963 4.709-.368 7.99 3.571 8.127 3.739a.873.873 0 01-.12 1.228.873.873 0 01-1.227-.12c-.029-.034-2.86-3.409-6.655-3.106-2.964.24-5.8 2.63-8.417 7.1a.872.872 0 01-.756.436z" fill="#ff5722"/></g></g><g data-name="Group 4350"><g data-name="Group 4347"><rect data-name="Rectangle 255" width="14.43" height="7.628" rx="3.814" fill="#ff5722" transform="translate(156.704 128.473)"/></g><g data-name="Group 4348"><rect data-name="Rectangle 256" width="14.43" height="7.628" rx="3.814" fill="#ff5722" transform="translate(156.704 146.935)"/></g><g data-name="Group 4349"><rect data-name="Rectangle 257" width="14.43" height="7.628" rx="3.814" fill="#ff5722" transform="translate(156.704 165.396)"/></g></g><g data-name="Group 4354"><g data-name="Group 4351"><rect data-name="Rectangle 258" width="14.43" height="7.628" rx="3.814" fill="#ff5722" transform="translate(285.116 128.473)"/></g><g data-name="Group 4352"><rect data-name="Rectangle 259" width="14.43" height="7.628" rx="3.814" fill="#ff5722" transform="translate(285.116 146.935)"/></g><g data-name="Group 4353"><rect data-name="Rectangle 260" width="14.43" height="7.628" rx="3.814" fill="#ff5722" transform="translate(285.116 165.396)"/></g></g><g data-name="Group 4355"><path data-name="Path 1335" d="M128.216 111.324l-1.05-1.05a.521.521 0 01.014-.75l29.375-27.276a.521.521 0 01.354-.139h142.433a.521.521 0 01.355.139l29 26.931a.521.521 0 01.033.73l-1.234 1.374a.521.521 0 01-.744.031l-24.547-23.113a.521.521 0 00-.862.508l7.493 29.353a.521.521 0 01-.5.65h-160.6a.521.521 0 01-.5-.654l7.837-29.538a.521.521 0 00-.856-.516l-25.267 23.337a.521.521 0 01-.734-.017z" fill="#fdbda9"/></g></g></g><g data-name="Group 4372"><g data-name="Group 4364"><g data-name="Group 4358"><path data-name="Path 1336" d="M75.593 175.134s-.839 10.067-19 7.985a6.308 6.308 0 01-.434-.066c-1.4-.27-8.3-1.828-9.079-6.491a5.129 5.129 0 011.612-4.517 14.345 14.345 0 003.735-15.081s-2.738-9.453 6.566-21.64a5.364 5.364 0 01.5-.573c1.179-1.161 5.472-4.8 9.143-.453.003.002 11.179 9.829 6.957 40.836z" fill="#fdbda9"/></g><g data-name="Group 4363"><g data-name="Group 4359"><path data-name="Path 1337" d="M61.751 193.06l-.414-.138c.019-.058 1.923-5.976 2.135-22.576.212-16.651 0-26.188 0-26.283l.436-.01c0 .094.212 9.64 0 26.3-.212 16.691-2.138 22.648-2.157 22.707z" fill="#ff5722"/></g><g data-name="Group 4360"><path data-name="Path 1338" d="M63.637 176.067l-.178-.4c.058-.026 5.811-2.685 7.282-10.87l.429.077a16.567 16.567 0 01-4.329 8.781 11.539 11.539 0 01-3.204 2.412z" fill="#ff5722"/></g><g data-name="Group 4361"><path data-name="Path 1339" d="M63.497 165.05a8.352 8.352 0 01-5.557-6l.421-.113a7.89 7.89 0 005.238 5.689z" fill="#ff5722"/></g><g data-name="Group 4362"><path data-name="Path 1340" d="M63.887 154.456l-.2-.385c.059-.032 5.936-3.2 5.874-7.159l.436-.006c.062 4.223-5.858 7.418-6.11 7.55z" fill="#ff5722"/></g></g></g><g data-name="Group 4371"><g data-name="Group 4365"><path data-name="Path 1341" d="M49.265 180.195s-.6 7.214-13.615 5.722a4.432 4.432 0 01-.311-.048c-1.006-.193-5.95-1.31-6.506-4.651a3.674 3.674 0 011.155-3.236 10.281 10.281 0 002.676-10.808s-1.962-6.774 4.706-15.508a3.95 3.95 0 01.361-.411c.845-.832 3.922-3.442 6.552-.325.003.001 8.003 7.044 4.982 29.265z" fill="#ff5722"/></g><g data-name="Group 4370"><g data-name="Group 4366"><path data-name="Path 1342" d="M39.404 193.059l-.415-.138c.014-.042 1.376-4.279 1.527-16.16.152-11.932 0-18.765 0-18.833l.436-.01c0 .068.152 6.908 0 18.848-.148 11.97-1.491 16.122-1.548 16.293z" fill="#ffede6"/></g><g data-name="Group 4367"><path data-name="Path 1343" d="M40.722 180.918l-.177-.4c.041-.019 4.135-1.914 5.182-7.744l.429.077c-1.09 6.07-5.259 7.989-5.434 8.067z" fill="#ffede6"/></g><g data-name="Group 4368"><path data-name="Path 1344" d="M40.583 173.027a5.941 5.941 0 01-4.027-4.343l.421-.114a5.513 5.513 0 003.709 4.033z" fill="#ffede6"/></g><g data-name="Group 4369"><path data-name="Path 1345" d="M40.905 165.43l-.2-.385c.042-.022 4.221-2.278 4.177-5.074l.436-.007c.043 3.063-4.231 5.37-4.413 5.466z" fill="#ffede6"/></g></g></g></g><g data-name="Group 4387"><g data-name="Group 4379"><g data-name="Group 4373"><path data-name="Path 1346" d="M429.753 175.134s-.839 10.067-19 7.985a6.43 6.43 0 01-.435-.066c-1.4-.27-8.3-1.828-9.08-6.491a5.13 5.13 0 011.612-4.517 14.346 14.346 0 003.735-15.081s-2.738-9.453 6.566-21.64a5.391 5.391 0 01.5-.573c1.179-1.161 5.472-4.8 9.143-.453.005.002 11.182 9.829 6.959 40.836z" fill="#fdbda9"/></g><g data-name="Group 4378"><g data-name="Group 4374"><path data-name="Path 1347" d="M415.91 193.06l-.414-.138c.019-.058 1.923-5.976 2.135-22.576.213-16.651 0-26.188 0-26.283l.436-.01c0 .094.213 9.64 0 26.3-.212 16.691-2.138 22.648-2.157 22.707z" fill="#ff5722"/></g><g data-name="Group 4375"><path data-name="Path 1348" d="M417.796 176.067l-.178-.4c.058-.026 5.811-2.685 7.281-10.87l.43.077a16.572 16.572 0 01-4.329 8.781 11.528 11.528 0 01-3.204 2.412z" fill="#ff5722"/></g><g data-name="Group 4376"><path data-name="Path 1349" d="M417.653 165.05a8.352 8.352 0 01-5.557-6l.421-.113a7.892 7.892 0 005.238 5.689z" fill="#ff5722"/></g><g data-name="Group 4377"><path data-name="Path 1350" d="M418.045 154.456l-.2-.385c.059-.032 5.936-3.2 5.874-7.159l.436-.006c.062 4.223-5.857 7.418-6.11 7.55z" fill="#ff5722"/></g></g></g><g data-name="Group 4386"><g data-name="Group 4380"><path data-name="Path 1351" d="M403.425 180.195s-.6 7.214-13.615 5.722a4.432 4.432 0 01-.311-.048c-1.007-.193-5.95-1.31-6.507-4.651a3.676 3.676 0 011.155-3.236 10.281 10.281 0 002.677-10.808s-1.962-6.774 4.705-15.508a3.939 3.939 0 01.361-.411c.845-.832 3.921-3.442 6.552-.325 0 .001 8.01 7.044 4.983 29.265z" fill="#ff5722"/></g><g data-name="Group 4385"><g data-name="Group 4381"><path data-name="Path 1352" d="M393.564 193.059l-.414-.138c.014-.042 1.376-4.279 1.527-16.16.152-11.932 0-18.765 0-18.833l.437-.01c0 .068.152 6.908 0 18.848-.153 11.97-1.493 16.122-1.55 16.293z" fill="#ffede6"/></g><g data-name="Group 4382"><path data-name="Path 1353" d="M394.882 180.918l-.178-.4c.041-.019 4.135-1.914 5.183-7.744l.43.077c-1.089 6.07-5.258 7.989-5.435 8.067z" fill="#ffede6"/></g><g data-name="Group 4383"><path data-name="Path 1354" d="M394.742 173.027a5.941 5.941 0 01-4.027-4.343l.421-.114a5.512 5.512 0 003.709 4.033z" fill="#ffede6"/></g><g data-name="Group 4384"><path data-name="Path 1355" d="M395.065 165.43l-.2-.385c.042-.022 4.221-2.278 4.176-5.074l.437-.007c.043 3.063-4.231 5.37-4.413 5.466z" fill="#ffede6"/></g></g></g></g></g></g></g></g></svg>